<?xml version="1.0" encoding="utf-8"?>
<!-- Uploaded to: SVG Repo, www.svgrepo.com, Generator: SVG Repo Mixer Tools -->
<svg fill="#000000" width="800px" height="800px" viewBox="0 0 32 32" version="1.1" xmlns="http://www.w3.org/2000/svg">
<title>gear-heart</title>
<path d="M29.142 15.431l1.312-0.204-0.52-3.347-1.338 0.208c-0.329-1.098-0.801-2.149-1.401-3.125l1.066-0.858-2.123-2.638-1.076 0.866c-0.812-0.771-1.732-1.446-2.75-1.999l0.505-1.304-3.158-1.223-0.505 1.305c-1.127-0.277-2.264-0.397-3.385-0.373l-0.213-1.368-3.347 0.52 0.211 1.359c-1.098 0.317-2.152 0.775-3.131 1.363l-0.85-1.057-2.638 2.123 0.834 1.036c-0.789 0.813-1.481 1.738-2.049 2.763l-1.218-0.472-1.223 3.158 1.193 0.462c-0.292 1.147-0.421 2.306-0.401 3.448l-1.228 0.191 0.52 3.347 1.207-0.188c0.32 1.122 0.788 2.198 1.391 3.197l-0.941 0.758 2.123 2.638 0.927-0.746c0.832 0.804 1.78 1.506 2.832 2.078l-0.424 1.096 3.158 1.223 0.424-1.095c1.161 0.286 2.333 0.406 3.487 0.373l0.182 1.171 3.347-0.52-0.184-1.187c1.122-0.332 2.195-0.813 3.19-1.429l0.765 0.95 2.638-2.123-0.778-0.966c0.785-0.831 1.47-1.775 2.027-2.82l1.183 0.458 1.223-3.158-1.209-0.468c0.271-1.14 0.383-2.291 0.347-3.424zM16.093 26.912c-2.247-5.884-9.713-7.732-9.888-13.272-0.188-5.907 7.122-7.041 9.888-2.247 2.771-5.233 9.687-3.284 9.859 2.247 0.184 5.895-7.486 7.388-9.859 13.272z"></path>
</svg>