<!-- icon666.com - MILLIONS OF FREE VECTOR ICONS --><svg viewBox="0 0 64 64" xmlns="http://www.w3.org/2000/svg"><g id="File-JPG"><path d="m57.99 11a1 1 0 0 0 -.28-.71l-8-8a1 1 0 0 0 -.71-.28v-.01h-38a5 5 0 0 0 -5 5v50a5 5 0 0 0 5 5h42a5 5 0 0 0 5-5zm-42.99 37a1 1 0 0 1 2 0 3 3 0 0 0 6 0v-12a1 1 0 0 1 2 0v12a5 5 0 0 1 -10 0zm12 4v-16a1 1 0 0 1 1-1h6a3.009 3.009 0 0 1 3 3v4a3.009 3.009 0 0 1 -3 3h-5v7a1 1 0 0 1 -2 0zm22-12a1 1 0 0 1 -2 0v-2a1 1 0 0 0 -1-1h-4a1 1 0 0 0 -1 1v12a1 1 0 0 0 1 1h4a1 1 0 0 0 1-1v-5h-3a1 1 0 0 1 0-2h4a1 1 0 0 1 1 1v6a3.009 3.009 0 0 1 -3 3h-4a3.009 3.009 0 0 1 -3-3v-12a3.009 3.009 0 0 1 3-3h4a3.009 3.009 0 0 1 3 3zm7 17a3.009 3.009 0 0 1 -3 3h-42a3.009 3.009 0 0 1 -3-3v-1h48zm0-25h-48v-25a3.009 3.009 0 0 1 3-3h37v7a1 1 0 0 0 1 1h7z" fill="#000000" style="fill: rgb(228, 99, 0);"></path><path d="m35 42v-4a1 1 0 0 0 -1-1h-5v6h5a1 1 0 0 0 1-1z" fill="#000000" style="fill: rgb(228, 99, 0);"></path></g></svg>